<?xml version="1.0" standalone="no"?>
<!DOCTYPE svg PUBLIC "-//W3C//DTD SVG 20010904//EN"
 "http://www.w3.org/TR/2001/REC-SVG-20010904/DTD/svg10.dtd">
<svg version="1.0" xmlns="http://www.w3.org/2000/svg"
 width="400.000000pt" height="400.000000pt" viewBox="0 0 400.000000 400.000000"
 preserveAspectRatio="xMidYMid meet">

<g transform="translate(0.000000,400.000000) scale(0.100000,-0.100000)"
fill="#000000" stroke="none">
<path d="M1757 3887 c-3 -8 -23 -16 -44 -19 -21 -3 -87 -29 -148 -58 -105 -50
-115 -57 -232 -176 -105 -107 -127 -135 -161 -206 -51 -108 -62 -138 -62 -168
1 -156 13 -361 25 -425 30 -161 36 -228 23 -237 -10 -6 -10 -8 0 -8 30 0 61
-140 36 -164 -18 -19 -18 -26 5 -50 22 -25 42 -150 20 -128 -7 6 -18 12 -24
12 -5 -1 1 -10 14 -21 18 -15 21 -23 13 -28 -9 -5 -7 -12 7 -25 17 -16 38 -87
33 -110 -2 -4 1 -13 7 -20 5 -6 12 -31 15 -56 13 -100 39 -189 78 -270 38 -80
41 -92 49 -215 6 -84 5 -133 -1 -139 -6 -6 -10 -22 -10 -36 0 -14 -14 -52 -31
-85 -17 -33 -34 -82 -38 -110 -5 -44 -9 -50 -31 -53 -14 -2 -29 -8 -35 -13 -5
-5 -17 -9 -26 -9 -9 0 -22 -7 -29 -15 -7 -8 -17 -15 -22 -15 -6 0 -5 7 2 15
11 13 7 13 -26 -1 -21 -9 -43 -22 -49 -29 -5 -7 -64 -36 -130 -65 -66 -28
-124 -56 -130 -61 -5 -5 -16 -9 -25 -9 -8 0 -40 -13 -71 -29 -31 -15 -68 -31
-83 -35 -16 -4 -24 -11 -20 -17 4 -8 -1 -9 -16 -4 -13 4 -37 1 -59 -8 -20 -9
-57 -23 -83 -33 -43 -15 -60 -35 -40 -47 4 -3 30 -1 57 3 62 10 81 -3 45 -30
-31 -24 -40 -25 -40 -4 0 8 -4 12 -10 9 -14 -9 -12 -17 10 -44 17 -19 23 -21
35 -11 9 7 19 9 23 5 4 -4 1 -10 -5 -12 -18 -6 -16 -24 3 -38 14 -10 24 -5 61
31 24 24 51 42 61 42 9 0 38 7 65 15 27 9 49 11 53 6 3 -5 17 0 31 11 14 11
29 18 32 15 3 -3 -27 -36 -66 -73 -39 -37 -85 -84 -103 -105 -30 -35 -31 -39
-16 -50 15 -11 26 -4 80 51 55 55 67 62 90 56 14 -3 26 -11 26 -18 -1 -20 -24
-54 -53 -76 -23 -19 -57 -68 -57 -84 0 -2 12 -6 28 -8 15 -2 26 -8 24 -16 -1
-7 19 -26 45 -42 27 -16 54 -34 61 -40 10 -9 17 -9 27 0 12 10 17 7 26 -14 15
-31 160 -110 188 -101 13 4 20 0 24 -15 5 -20 27 -28 27 -10 0 6 7 10 15 10
17 0 65 67 65 92 0 22 8 23 32 1 16 -14 18 -14 18 -1 0 9 -7 18 -15 22 -11 4
-15 22 -14 73 0 45 3 61 8 48 5 -11 6 -35 3 -53 -4 -29 -2 -32 19 -32 13 0 30
9 37 20 7 11 18 20 26 20 7 0 20 9 27 19 18 26 62 32 67 9 2 -9 -5 -18 -15
-21 -16 -4 -15 -6 5 -12 12 -4 22 -15 22 -26 0 -24 -1 -23 -42 1 -44 25 -63
14 -60 -36 2 -31 -3 -42 -38 -75 -34 -32 -45 -37 -70 -32 -19 3 -30 1 -30 -6
0 -6 7 -11 17 -11 14 0 14 -2 -2 -20 -36 -40 -5 -31 55 15 34 25 64 44 67 41
3 -2 -18 -21 -46 -41 -48 -35 -63 -55 -41 -55 17 0 115 86 128 113 7 15 16 27
21 27 13 0 31 -66 38 -134 6 -63 23 -94 23 -41 0 14 5 25 11 25 7 0 9 -10 5
-24 -3 -14 -2 -27 3 -30 27 -17 15 147 -15 205 -14 29 -14 32 3 44 20 15 105
37 113 29 2 -3 5 -13 5 -22 0 -9 6 -18 13 -18 6 -1 17 -2 22 -3 6 0 10 -8 8
-17 -2 -10 3 -19 9 -21 18 -7 5 59 -15 75 -14 11 -14 12 0 12 31 0 47 -27 38
-64 -4 -19 -5 -37 -3 -40 11 -11 18 -189 9 -205 -4 -6 -1 -11 7 -11 8 0 19 10
25 22 10 23 11 23 11 -4 1 -25 5 -28 37 -28 30 0 35 3 30 17 -9 21 31 63 60
63 12 0 24 5 26 12 4 12 28 3 28 -10 -1 -4 -9 -17 -20 -30 -16 -20 -22 -21
-39 -10 -24 14 -30 10 -33 -23 -3 -21 2 -24 30 -27 18 -2 40 2 48 9 9 7 18 8
27 2 14 -11 101 -10 135 1 22 7 31 26 12 26 -15 0 -70 42 -70 53 0 8 38 -18
83 -58 26 -23 95 -25 94 -2 0 6 1 25 1 41 2 24 4 27 17 16 10 -8 13 -21 9 -37
-6 -23 -4 -24 32 -21 35 3 39 6 41 33 2 21 -5 37 -22 53 -21 19 -25 32 -25 76
0 40 -6 60 -22 81 l-22 28 31 56 c30 54 33 56 82 64 46 8 50 10 41 27 -7 13
-7 21 0 25 5 3 15 -5 21 -19 15 -33 34 -39 69 -21 36 19 50 19 50 1 0 -8 6
-17 13 -20 6 -3 3 -5 -8 -5 -11 1 -24 0 -30 -1 -5 -2 -19 -3 -29 -4 -11 -1
-21 -7 -24 -14 -3 -9 7 -12 35 -11 21 1 49 -1 62 -5 21 -7 23 -6 18 13 -4 16
-1 21 13 21 10 0 23 7 30 15 15 18 7 19 -21 3 -17 -11 -22 -10 -35 6 -16 23
-18 46 -4 46 6 0 10 -5 10 -11 0 -6 8 -8 18 -5 10 4 27 -1 38 -9 29 -22 36
-18 18 10 -9 14 -12 25 -7 25 5 0 15 -12 22 -27 10 -21 9 -28 -1 -35 -10 -6
-10 -10 2 -18 8 -5 20 -10 25 -10 6 0 20 -16 32 -34 l22 -34 -22 -16 c-12 -8
-17 -15 -10 -15 6 -1 15 4 18 9 3 6 10 10 16 10 12 0 48 -79 51 -112 3 -31 15
-35 42 -15 27 20 13 83 -34 156 -48 74 -73 121 -67 127 10 11 34 -9 52 -44 15
-27 27 -38 48 -40 21 -3 27 -8 23 -19 -9 -21 15 -48 46 -51 36 -4 42 10 17 42
-18 23 -19 27 -4 32 22 9 24 5 37 -65 12 -62 24 -74 51 -47 11 12 12 27 5 78
-6 35 -14 67 -19 73 -14 15 -10 29 5 16 10 -9 16 -8 26 4 10 12 9 16 -5 21
-11 5 -15 14 -11 28 6 26 -14 107 -38 153 -16 31 -15 34 4 53 11 11 20 27 20
36 0 12 13 5 43 -22 24 -22 52 -44 63 -51 18 -11 18 -13 -9 -35 -35 -29 -51
-91 -34 -128 7 -14 31 -34 54 -45 23 -11 42 -24 43 -29 0 -5 -18 -28 -40 -52
-64 -69 -47 -81 20 -14 8 8 22 16 30 18 19 4 50 40 50 58 0 20 25 58 78 122
48 57 59 63 58 30 -1 -15 6 -24 19 -26 16 -4 17 -2 7 11 -8 9 -9 18 -3 21 5 3
11 1 13 -6 5 -13 98 59 98 76 0 6 -5 5 -12 -2 -7 -7 -17 -12 -22 -12 -6 0 -2
7 8 15 10 8 22 12 27 10 4 -3 16 6 27 20 26 33 16 77 -19 86 -21 6 -22 7 -6
14 28 12 69 -14 61 -39 -5 -19 -3 -18 15 4 11 14 21 27 21 30 0 3 -28 12 -62
19 -35 8 -82 22 -105 32 -23 11 -65 24 -94 30 -29 6 -59 18 -67 26 -13 12 -16
11 -29 -7 -8 -11 -18 -20 -24 -20 -15 0 -10 30 7 37 11 4 7 9 -18 20 -18 8
-60 27 -93 43 -75 36 -111 45 -119 31 -4 -6 -12 -11 -18 -11 -7 0 -6 5 1 14
10 12 7 18 -18 30 -16 9 -37 16 -46 16 -9 0 -27 7 -40 16 -14 9 -31 14 -39 11
-8 -3 -16 -2 -18 2 -5 14 -68 24 -68 12 0 -6 -7 -11 -15 -11 -8 0 -15 7 -15
15 0 8 -9 15 -19 15 -19 0 -32 19 -36 52 -1 9 -13 34 -27 55 -14 21 -30 57
-36 81 -7 23 -17 59 -23 81 -7 22 -10 81 -7 138 3 81 7 104 25 129 45 63 103
255 103 342 0 16 3 32 7 36 4 4 8 22 9 40 0 18 8 47 17 64 8 18 11 34 6 38 -5
3 -5 13 1 24 5 10 10 44 10 74 0 45 4 57 20 66 11 6 20 16 20 23 0 7 9 30 20
52 21 40 21 40 1 15 l-21 -25 0 45 c0 25 10 65 22 90 25 54 23 42 42 220 8 80
20 173 26 208 9 55 8 124 -3 247 -1 17 -10 44 -19 60 -26 48 -48 102 -48 118
0 33 -40 105 -62 110 -18 5 -20 9 -10 19 16 16 15 28 -1 28 -8 0 -22 9 -32 20
-10 11 -22 17 -26 14 -17 -10 -29 7 -19 26 9 17 4 23 -37 44 -27 13 -68 45
-93 70 -24 25 -50 46 -57 46 -8 0 -39 13 -71 29 -31 16 -75 34 -97 39 -90 25
-253 43 -378 44 -73 0 -137 4 -143 9 -8 6 -14 5 -17 -4z m563 -88 c0 -6 -7 -6
-20 1 -11 6 -20 15 -20 21 0 6 7 6 20 -1 11 -6 20 -15 20 -21z m-80 1 c0 -5
-2 -10 -4 -10 -3 0 -8 5 -11 10 -3 6 -1 10 4 10 6 0 11 -4 11 -10z m-50 -285
c10 -13 15 -13 32 -1 19 13 23 12 45 -15 14 -17 35 -29 48 -29 13 0 25 -4 27
-9 2 -5 22 -11 44 -13 23 -3 52 -11 65 -20 13 -8 40 -20 61 -27 20 -7 39 -18
42 -26 3 -8 12 -15 20 -15 8 0 18 -5 22 -12 5 -8 2 -9 -9 -5 -19 7 -21 -1 -8
-22 5 -8 17 -11 28 -7 15 5 24 -2 40 -36 26 -54 39 -130 20 -123 -7 3 -18 19
-25 35 -24 54 -40 37 -40 -40 0 -65 8 -85 23 -60 11 18 23 10 27 -20 3 -16 0
-34 -6 -40 -7 -7 -3 -10 12 -10 28 0 30 -29 2 -31 -11 -1 -26 -2 -32 -3 -17
-1 -33 -40 -40 -93 -6 -44 5 -56 30 -31 9 9 12 7 11 -12 -1 -14 2 -34 6 -44 8
-18 6 -18 -23 3 -18 12 -32 26 -32 30 0 19 -67 35 -135 32 -119 -5 -138 -7
-194 -21 -35 -10 -56 -21 -62 -35 -15 -35 -36 -56 -52 -49 -17 6 -28 -30 -15
-56 4 -8 10 -28 14 -45 4 -16 9 -23 11 -15 2 8 18 25 36 37 18 12 52 37 77 54
68 49 134 63 210 45 64 -15 78 -23 120 -69 l25 -29 28 26 c15 14 27 30 27 36
0 14 17 13 26 -2 4 -6 0 -16 -9 -23 -10 -7 -17 -18 -17 -26 1 -10 5 -8 15 5
22 29 27 15 15 -38 -12 -56 2 -126 25 -126 21 0 21 -132 1 -150 -9 -7 -14 -27
-13 -51 1 -22 -3 -43 -8 -47 -6 -4 -10 -16 -10 -27 0 -11 -6 -20 -14 -20 -8 0
-16 -6 -19 -14 -3 -8 0 -11 7 -7 6 4 11 0 11 -9 0 -12 -6 -15 -22 -10 -20 7
-21 5 -15 -38 6 -39 2 -56 -28 -116 -19 -39 -35 -77 -35 -85 0 -9 -12 -23 -27
-33 -40 -26 -54 -45 -49 -70 2 -13 -2 -23 -9 -23 -7 0 -20 -18 -30 -40 -12
-28 -22 -37 -28 -31 -7 7 -7 18 2 33 19 37 12 108 -15 139 -8 9 -11 19 -7 22
3 4 1 7 -5 7 -7 0 -12 -5 -12 -11 0 -8 -4 -8 -14 0 -8 7 -32 13 -55 14 -32 1
-38 4 -29 14 17 21 0 28 -20 10 -10 -10 -24 -17 -30 -17 -18 0 -14 -11 15 -42
33 -35 27 -43 -20 -23 -33 14 -36 14 -42 -4 -3 -10 -4 -25 -3 -32 2 -8 -3 -12
-12 -10 -20 6 -64 6 -128 -1 -42 -5 -54 -3 -62 11 -7 12 -12 13 -18 4 -5 -8
-38 -11 -100 -10 -68 2 -86 4 -69 11 33 15 34 16 7 36 -22 17 -28 17 -58 4
-19 -8 -36 -14 -38 -14 -11 0 -1 18 26 47 17 18 30 41 30 52 0 22 -14 28 -25
11 -3 -5 -16 -10 -28 -10 -39 0 -98 -26 -142 -63 -33 -28 -44 -44 -47 -74 -3
-21 -1 -41 5 -44 5 -4 5 -9 -2 -13 -12 -8 -51 63 -51 94 0 23 -27 70 -40 70
-11 0 -10 -62 1 -75 4 -6 8 -24 7 -40 0 -17 7 -43 16 -60 9 -16 16 -44 16 -60
0 -17 9 -48 20 -70 11 -21 18 -41 15 -43 -2 -3 -10 7 -16 22 -7 14 -18 26 -26
26 -15 0 -17 -16 -3 -25 6 -3 10 -11 10 -17 0 -7 -9 -2 -21 11 -16 17 -18 25
-9 36 8 10 8 15 0 20 -6 4 -14 4 -18 1 -3 -4 -14 12 -24 34 -10 22 -23 40 -29
40 -5 0 -9 6 -8 13 4 21 -13 102 -23 108 -17 11 -33 179 -17 179 5 0 9 -4 9
-10 0 -5 9 -10 21 -10 11 0 29 -5 39 -10 16 -8 18 -8 14 5 -6 15 -17 19 -41
16 -8 -1 -13 10 -13 27 0 16 -8 36 -17 43 -15 12 -16 12 -10 -3 3 -10 2 -18
-4 -18 -6 0 -8 11 -4 28 4 20 1 33 -10 42 -16 14 -21 45 -5 35 6 -3 10 5 10
19 0 14 -5 28 -12 32 -7 4 -8 3 -4 -4 4 -7 2 -12 -4 -12 -7 0 -9 7 -6 16 3 8
-1 29 -10 46 -9 18 -14 48 -12 73 2 25 -2 47 -9 54 -15 13 -17 102 -4 129 25
50 30 85 17 111 -12 22 -12 33 -1 64 7 20 9 37 4 37 -5 0 -9 7 -9 16 0 11 6
15 20 11 11 -3 20 -3 20 -1 0 2 -9 19 -20 39 -23 41 -25 66 -8 83 18 18 38 15
38 -5 0 -12 5 -9 15 11 16 31 21 60 5 36 -7 -11 -12 -12 -21 -3 -8 8 -8 17 2
34 7 13 14 54 15 92 2 49 8 74 22 92 12 15 23 21 27 15 13 -22 35 -10 35 20 0
21 9 36 35 57 41 33 47 53 8 27 -27 -17 -28 -17 -13 2 21 26 32 34 53 34 11 0
31 8 45 19 15 10 41 22 57 26 17 4 24 10 18 12 -26 9 -12 22 17 17 22 -5 31
-2 36 10 3 9 11 13 16 10 6 -4 5 -10 -3 -16 -10 -7 -3 -8 20 -4 18 3 40 6 47
6 8 0 14 7 14 15 0 8 7 15 15 15 8 0 15 -5 15 -10 0 -7 6 -7 18 -1 28 15 101
41 115 41 6 -1 -1 -12 -18 -25 -39 -33 -12 -32 31 0 19 14 39 22 48 19 9 -4
22 -1 30 5 7 6 21 9 29 5 9 -3 28 3 43 15 31 25 66 27 84 6z m552 -919 c-2 -5
-9 -1 -14 8 -5 9 -6 21 -2 28 9 14 25 -22 16 -36z m-97 -592 c-19 -37 -19 -58
0 -50 22 8 19 -18 -5 -39 -11 -10 -20 -26 -20 -37 0 -10 -5 -18 -10 -18 -6 0
-15 -11 -20 -25 -5 -14 -16 -25 -25 -25 -15 0 -20 -16 -17 -53 2 -17 1 -17
-14 -2 -15 14 -15 21 -3 57 7 23 21 43 30 45 24 7 55 79 41 96 -9 10 -4 22 19
51 36 42 46 43 24 0z m-590 -169 c83 -2 166 -8 186 -13 19 -5 49 -7 66 -5 17
3 34 0 37 -6 5 -7 -1 -11 -15 -11 -18 0 -19 -2 -9 -15 9 -11 16 -12 25 -5 9 7
16 6 25 -5 7 -8 23 -15 36 -15 13 0 24 -4 24 -8 0 -7 -28 -70 -35 -80 -1 -1
-14 2 -27 7 -20 8 -32 5 -59 -13 -42 -29 -79 -41 -79 -27 0 6 6 11 14 11 9 0
12 7 10 18 -5 15 -19 17 -152 14 -201 -4 -208 -4 -288 0 -66 4 -71 3 -61 -13
6 -9 16 -15 22 -13 6 3 17 -7 25 -21 7 -14 20 -25 28 -25 9 0 12 -3 9 -7 -4
-3 -17 -2 -30 4 -43 21 -59 23 -73 9 -9 -9 -10 -17 -4 -21 5 -3 10 -1 10 4 0
16 28 13 37 -4 13 -23 66 -22 100 3 20 14 34 18 38 12 3 -5 1 -10 -4 -10 -6 0
-10 -10 -10 -22 1 -13 -2 -31 -6 -40 -4 -11 -3 -18 4 -18 6 0 11 8 11 18 0 31
38 63 66 56 13 -3 30 -2 37 4 6 6 27 8 45 6 19 -2 43 1 55 7 17 9 23 8 34 -7
12 -16 13 -16 13 -1 0 9 7 17 15 17 10 0 15 -10 15 -30 0 -27 2 -29 29 -24 16
4 32 1 35 -5 13 -20 24 -12 40 29 16 39 40 56 34 24 -2 -10 3 -19 10 -21 6 -3
12 2 12 11 0 9 7 16 15 16 8 0 15 -7 15 -15 0 -8 -5 -15 -11 -15 -6 0 -8 -7
-5 -15 6 -16 -10 -54 -28 -66 -5 -4 -6 -14 -3 -22 9 -25 -31 -33 -48 -10 -10
13 -17 15 -25 7 -12 -12 -60 -7 -60 7 0 16 -22 10 -51 -15 -18 -15 -36 -22
-49 -19 -14 4 -20 0 -20 -11 0 -9 -4 -16 -10 -16 -5 0 -10 7 -10 15 0 19 -15
19 -44 0 -17 -11 -30 -13 -47 -6 -13 5 -18 10 -11 10 14 1 6 21 -8 21 -5 0
-19 -10 -31 -22 l-22 -23 5 27 c5 25 3 27 -18 22 -15 -4 -24 -2 -24 5 0 6 8
11 18 12 14 0 14 2 -3 8 -11 5 -25 6 -31 4 -7 -2 -23 10 -37 28 l-25 32 -7
-41 c-6 -39 -35 -81 -35 -52 0 9 -11 11 -37 7 -28 -5 -34 -4 -20 4 25 15 22
41 -5 37 -13 -2 -22 -9 -20 -16 1 -8 -2 -11 -8 -7 -6 4 -8 16 -4 28 3 12 3 19
-1 15 -10 -10 -38 29 -30 41 3 5 -1 15 -8 23 -22 22 -35 51 -35 80 0 15 -9 43
-21 63 -18 32 -19 36 -5 42 9 3 19 2 23 -3 3 -5 32 -11 64 -12 47 -3 57 -1 57
12 0 9 -4 16 -10 16 -5 0 -10 7 -10 16 0 12 6 15 23 11 12 -4 45 0 72 7 28 7
70 12 95 10 25 -2 113 -6 195 -9z m455 -85 c0 -5 -4 -10 -10 -10 -5 0 -10 5
-10 10 0 6 5 10 10 10 6 0 10 -4 10 -10z m-1020 -290 c0 -6 48 -59 107 -118
59 -59 106 -111 105 -116 -2 -5 3 -16 11 -25 7 -9 19 -29 27 -46 21 -43 31
-51 73 -59 43 -8 48 4 11 28 -55 37 -5 50 119 33 53 -7 74 -7 93 4 21 11 27
11 34 -1 5 -9 26 -13 59 -12 29 0 51 -4 51 -9 0 -6 -8 -8 -18 -5 -10 4 -22 -1
-29 -12 -10 -17 -8 -18 20 -17 40 2 79 18 97 40 7 9 26 23 40 30 18 9 30 25
34 45 5 29 112 150 133 150 4 0 14 10 22 22 l14 22 8 -22 c10 -26 29 -29 29
-5 0 12 3 14 11 6 8 -8 4 -34 -15 -96 -14 -47 -26 -92 -26 -101 0 -9 -16 -68
-35 -132 -19 -63 -35 -125 -35 -138 0 -12 -4 -26 -9 -32 -7 -7 -71 -179 -71
-190 0 -2 8 -4 18 -7 14 -3 12 -6 -8 -14 -32 -14 -64 -49 -55 -62 3 -6 0 -9
-8 -5 -17 6 -51 -42 -43 -61 2 -7 -3 -15 -12 -18 -20 -5 -82 -122 -82 -153 0
-38 -228 -289 -246 -271 -3 3 6 16 20 28 18 16 24 29 20 45 -3 12 -1 25 4 28
6 4 8 -2 5 -14 -7 -27 9 -25 37 5 l23 24 -27 31 c-14 17 -26 36 -26 41 0 5 -6
9 -13 9 -6 0 -18 15 -26 33 -8 17 -20 39 -27 47 -7 8 -22 42 -34 75 -11 33
-25 68 -31 77 -5 10 -9 23 -9 30 0 7 -9 24 -19 37 -10 13 -16 32 -14 41 3 11
-3 19 -16 23 -12 3 -21 13 -21 25 0 10 -11 28 -25 38 -14 10 -25 24 -25 31 0
7 -7 13 -16 13 -10 0 -14 6 -10 15 3 9 0 15 -10 15 -8 0 -13 4 -10 9 4 5 -28
75 -70 156 -41 81 -73 153 -70 161 3 7 0 14 -6 16 -5 2 -16 19 -23 38 -6 19
-25 65 -40 102 -16 38 -25 71 -21 75 4 4 11 1 16 -7 6 -10 9 3 8 36 -1 28 2
56 6 62 9 15 26 16 26 2z m760 -16 c0 -14 -21 -19 -33 -7 -9 9 13 34 24 27 5
-3 9 -12 9 -20z m-380 -4 c0 -5 -4 -10 -10 -10 -5 0 -10 5 -10 10 0 6 5 10 10
10 6 0 10 -4 10 -10z m-400 -290 c0 -5 -5 -10 -11 -10 -5 0 -7 5 -4 10 3 6 8
10 11 10 2 0 4 -4 4 -10z m40 -80 c0 -5 -2 -10 -4 -10 -3 0 -8 5 -11 10 -3 6
-1 10 4 10 6 0 11 -4 11 -10z m1335 -21 c5 -6 3 -9 -8 -9 -10 0 -29 -7 -43
-16 -28 -19 -43 -12 -24 11 10 13 9 15 -9 15 -14 0 -20 4 -15 11 7 13 83 4 99
-12z m-1345 -39 c0 -5 -4 -10 -10 -10 -5 0 -10 5 -10 10 0 6 5 10 10 10 6 0
10 -4 10 -10z m1418 4 c40 -8 58 -45 33 -68 -10 -9 -26 -16 -37 -16 -10 -1
-37 -9 -59 -20 -47 -22 -55 -19 -55 21 0 22 5 29 19 29 11 0 18 -6 17 -16 0
-9 5 -19 13 -22 10 -3 12 2 7 22 -6 24 -4 26 25 26 39 0 34 24 -6 28 -21 3
-25 6 -14 13 17 11 18 11 57 3z m-351 -26 c-3 -8 -6 -5 -6 6 -1 11 2 17 5 13
3 -3 4 -12 1 -19z m250 16 c-3 -3 -12 -4 -19 -1 -8 3 -5 6 6 6 11 1 17 -2 13
-5z m-1640 -23 c20 -17 21 -22 10 -44 -14 -27 -30 -24 -39 8 -3 11 -9 28 -13
38 -10 23 13 22 42 -2z m283 9 c0 -5 -4 -10 -10 -10 -5 0 -10 5 -10 10 0 6 5
10 10 10 6 0 10 -4 10 -10z m50 -10 c0 -5 -4 -10 -10 -10 -5 0 -10 5 -10 10 0
6 5 10 10 10 6 0 10 -4 10 -10z m1105 -10 c3 -5 1 -10 -4 -10 -6 0 -11 5 -11
10 0 6 2 10 4 10 3 0 8 -4 11 -10z m-1055 -4 c0 -3 -4 -8 -10 -11 -5 -3 -10
-1 -10 4 0 6 5 11 10 11 6 0 10 -2 10 -4z m1536 -11 c3 -7 21 -16 40 -19 19
-4 34 -10 34 -15 0 -16 -13 -20 -32 -10 -24 13 -78 -6 -78 -27 0 -8 -4 -14
-10 -14 -5 0 -10 7 -10 15 0 9 -7 18 -16 22 -15 6 -15 7 0 19 11 8 13 14 7 19
-21 12 -11 21 25 22 21 1 37 -4 40 -12z m-2005 -14 l23 -18 -35 1 c-37 1 -55
16 -36 28 17 11 22 10 48 -11z m315 -8 c-10 -10 -19 5 -10 18 6 11 8 11 12 0
2 -7 1 -15 -2 -18z m64 23 c0 -3 -4 -8 -10 -11 -5 -3 -10 -1 -10 4 0 6 5 11
10 11 6 0 10 -2 10 -4z m-250 -26 c0 -5 -5 -10 -11 -10 -5 0 -7 5 -4 10 3 6 8
10 11 10 2 0 4 -4 4 -10z m-248 -22 c-7 -7 -12 -8 -12 -2 0 14 12 26 19 19 2
-3 -1 -11 -7 -17z m2008 12 c0 -5 -5 -10 -11 -10 -5 0 -7 5 -4 10 3 6 8 10 11
10 2 0 4 -4 4 -10z m-1993 -48 c-23 -24 -40 -52 -43 -73 -3 -19 -15 -46 -26
-60 -19 -23 -19 -24 -13 -1 7 25 -7 29 -25 7 -7 -8 -17 -15 -22 -15 -5 0 4 17
21 37 17 21 31 42 31 47 0 14 41 56 55 56 7 0 20 9 30 20 10 11 21 20 24 20 3
0 -12 -17 -32 -38z m423 28 c0 -5 -5 -10 -11 -10 -5 0 -7 5 -4 10 3 6 8 10 11
10 2 0 4 -4 4 -10z m173 -15 c20 -10 37 -22 37 -27 0 -11 1 -11 -52 16 -26 13
-44 27 -41 30 4 4 9 5 12 3 3 -1 23 -11 44 -22z m977 15 c0 -5 -4 -10 -10 -10
-5 0 -10 5 -10 10 0 6 5 10 10 10 6 0 10 -4 10 -10z m-1220 -10 c0 -5 -5 -10
-11 -10 -5 0 -7 5 -4 10 3 6 8 10 11 10 2 0 4 -4 4 -10z m120 0 c0 -5 -4 -10
-10 -10 -5 0 -10 5 -10 10 0 6 5 10 10 10 6 0 10 -4 10 -10z m1120 -10 c0 -5
-5 -10 -11 -10 -5 0 -7 5 -4 10 3 6 8 10 11 10 2 0 4 -4 4 -10z m310 0 c0 -5
-2 -10 -4 -10 -3 0 -8 5 -11 10 -3 6 -1 10 4 10 6 0 11 -4 11 -10z m229 6 c-2
-2 -15 -9 -29 -16 -23 -12 -24 -12 -11 3 7 10 20 17 29 17 8 0 13 -2 11 -4z
m-1705 -35 c-2 -3 -12 3 -22 13 -16 17 -16 18 5 5 12 -7 20 -15 17 -18z m-594
10 c0 -5 -14 -23 -30 -40 l-30 -30 32 2 c18 1 39 6 46 10 6 5 12 4 12 -2 0
-15 -64 -65 -68 -52 -6 18 -33 13 -30 -6 4 -21 -27 -29 -47 -13 -13 10 -11 15
10 32 17 13 25 29 25 50 0 19 4 28 13 25 6 -2 23 4 36 14 27 22 31 23 31 10z
m74 -26 c-10 -16 -20 -23 -22 -16 -4 12 28 55 35 47 3 -2 -3 -17 -13 -31z
m2279 23 c54 -28 61 -76 18 -119 -38 -38 -71 -37 -111 2 -27 27 -70 97 -70
114 0 12 44 -19 68 -46 27 -33 71 -39 93 -13 11 14 11 18 -4 29 -10 7 -27 11
-37 8 -22 -6 -29 22 -7 30 19 8 27 8 50 -5z m183 -23 l39 0 -3 -38 c-6 -61
-28 -102 -74 -138 -58 -46 -95 -87 -118 -131 -23 -42 -37 -46 -70 -20 -18 15
-21 24 -15 50 3 18 16 37 27 43 11 6 26 26 34 45 8 19 19 34 24 34 5 0 25 14
44 30 42 37 54 81 32 115 -20 30 -20 33 2 37 9 2 22 -3 28 -11 7 -9 28 -16 50
-16z m-2333 -35 c-4 -37 -1 -71 7 -89 11 -28 10 -33 -14 -62 -29 -34 -35 -93
-15 -162 9 -34 8 -40 -11 -55 -11 -9 -27 -34 -34 -55 l-13 -38 -17 26 c-9 14
-33 33 -51 42 -19 9 -35 19 -35 22 0 3 19 24 41 46 41 39 69 88 69 121 0 20
-28 43 -52 44 -25 0 -23 7 18 42 33 29 53 63 84 146 19 50 29 38 23 -28z m327
45 c-7 -8 -16 -15 -21 -15 -5 0 -6 7 -3 15 4 8 13 15 21 15 13 0 13 -3 3 -15z
m130 0 c0 -9 -6 -12 -15 -9 -8 4 -15 10 -15 15 0 5 7 9 15 9 8 0 15 -7 15 -15z
m1105 5 c3 -5 1 -10 -4 -10 -6 0 -11 5 -11 10 0 6 2 10 4 10 3 0 8 -4 11 -10z
m-1465 -35 c16 10 12 -6 -6 -27 -16 -16 -15 -19 7 -38 19 -16 21 -21 10 -29
-7 -5 -10 -14 -7 -20 4 -6 0 -11 -9 -11 -28 0 -47 97 -28 146 6 15 7 15 15 -5
4 -12 12 -19 18 -16z m1510 25 c0 -5 -5 -10 -11 -10 -5 0 -7 5 -4 10 3 6 8 10
11 10 2 0 4 -4 4 -10z m291 -15 c31 -29 33 -54 8 -81 -24 -26 -58 -31 -77 -12
-20 20 -14 33 19 45 38 15 34 37 -7 41 -43 4 -56 11 -48 23 9 16 81 5 105 -16z
m69 4 c0 -6 -4 -8 -9 -4 -5 3 -11 -3 -13 -12 -3 -16 -5 -15 -16 4 -11 19 -10
22 3 17 8 -4 15 -1 15 6 0 6 5 8 10 5 6 -3 10 -11 10 -16z m-1450 1 c0 -5 -4
-10 -10 -10 -5 0 -10 5 -10 10 0 6 5 10 10 10 6 0 10 -4 10 -10z m70 0 c0 -5
-5 -10 -11 -10 -5 0 -7 5 -4 10 3 6 8 10 11 10 2 0 4 -4 4 -10z m915 0 c3 -5
-1 -10 -10 -10 -9 0 -13 5 -10 10 3 6 8 10 10 10 2 0 7 -4 10 -10z m-911 -37
c-30 -22 -39 -15 -13 13 15 16 25 21 28 13 2 -7 -4 -18 -15 -26z m976 16 c0
-6 -4 -7 -10 -4 -5 3 -10 11 -10 16 0 6 5 7 10 4 6 -3 10 -11 10 -16z m-1090
1 c0 -5 -4 -10 -10 -10 -5 0 -10 5 -10 10 0 6 5 10 10 10 6 0 10 -4 10 -10z
m990 0 c0 -5 -5 -10 -11 -10 -5 0 -7 5 -4 10 3 6 8 10 11 10 2 0 4 -4 4 -10z
m-936 -15 c-4 -8 -10 -12 -15 -9 -11 6 -2 24 11 24 5 0 7 -7 4 -15z m1089 1
c25 -19 21 -26 -8 -13 -14 7 -25 15 -25 20 0 11 13 8 33 -7z m377 -7 c0 -6 -4
-7 -10 -4 -5 3 -10 11 -10 16 0 6 5 7 10 4 6 -3 10 -11 10 -16z m-2380 -19
c21 -21 18 -24 -13 -20 -15 1 -17 -3 -12 -19 10 -32 -17 -26 -32 6 -17 35 -16
41 5 46 30 8 32 7 52 -13z m670 -5 c-7 -9 -15 -13 -17 -11 -7 7 7 26 19 26 6
0 6 -6 -2 -15z m140 6 c0 -14 -18 -23 -30 -16 -6 4 -8 11 -5 16 8 12 35 12 35
0z m65 -1 c-3 -5 -10 -10 -16 -10 -5 0 -9 5 -9 10 0 6 7 10 16 10 8 0 12 -4 9
-10z m1955 -29 c0 -16 -10 -37 -25 -51 -28 -26 -32 -18 -10 20 8 14 14 35 15
48 0 13 4 20 10 17 6 -3 10 -19 10 -34z m-1905 19 c-3 -5 -11 -10 -16 -10 -6
0 -7 5 -4 10 3 6 11 10 16 10 6 0 7 -4 4 -10z m1140 0 c3 -5 -1 -10 -9 -10 -9
0 -16 5 -16 10 0 6 4 10 9 10 6 0 13 -4 16 -10z m-1325 -10 c8 -5 12 -11 10
-14 -3 -2 -14 2 -24 10 -22 15 -10 19 14 4z m1400 -10 c0 -5 -2 -10 -4 -10 -3
0 -8 5 -11 10 -3 6 -1 10 4 10 6 0 11 -4 11 -10z m-1262 -20 c-14 -21 -28 -27
-28 -10 0 6 5 10 11 10 5 0 7 5 4 10 -3 6 1 10 9 10 14 0 14 -3 4 -20z m887
10 c3 -5 1 -10 -4 -10 -6 0 -11 5 -11 10 0 6 2 10 4 10 3 0 8 -4 11 -10z m551
-16 c-30 -21 -45 -16 -16 6 14 10 27 16 30 13 3 -2 -4 -11 -14 -19z m-1786 12
c0 -3 -4 -8 -10 -11 -5 -3 -10 -1 -10 4 0 6 5 11 10 11 6 0 10 -2 10 -4z m198
-11 c1 -1 0 -10 -4 -19 -7 -19 -28 -22 -21 -3 2 6 -8 17 -22 24 -25 11 -24 11
9 6 19 -3 36 -7 38 -8z m82 5 c0 -5 -4 -10 -10 -10 -5 0 -10 5 -10 10 0 6 5
10 10 10 6 0 10 -4 10 -10z m1310 -10 c0 -5 -4 -10 -10 -10 -5 0 -10 5 -10 10
0 6 5 10 10 10 6 0 10 -4 10 -10z m-260 -14 c0 -3 -4 -8 -10 -11 -5 -3 -10 -1
-10 4 0 6 5 11 10 11 6 0 10 -2 10 -4z m-1040 -31 c-12 -13 -27 -22 -32 -19
-12 7 0 24 18 24 8 0 14 5 14 10 0 6 5 10 12 10 6 0 1 -11 -12 -25z m1330 4
c0 -6 -4 -7 -10 -4 -5 3 -10 11 -10 16 0 6 5 7 10 4 6 -3 10 -11 10 -16z
m-1717 -15 c-27 -20 -39 -17 -18 6 10 11 22 17 27 14 5 -3 1 -12 -9 -20z m307
17 c0 -5 -7 -11 -15 -15 -15 -5 -20 5 -8 17 9 10 23 9 23 -2z m1538 -4 c22
-26 52 -107 39 -107 -12 0 -67 91 -67 110 0 14 16 12 28 -3z m42 -8 c0 -6 -4
-7 -10 -4 -5 3 -10 11 -10 16 0 6 5 7 10 4 6 -3 10 -11 10 -16z m-1650 1 c0
-5 -4 -10 -10 -10 -5 0 -10 5 -10 10 0 6 5 10 10 10 6 0 10 -4 10 -10z m362
-79 c-2 -12 6 -38 17 -57 27 -45 27 -44 -8 -44 -40 0 -81 38 -71 65 8 22 -4
73 -20 89 -5 5 -10 16 -10 24 0 9 17 2 48 -20 35 -26 46 -40 44 -57z m118 19
c0 -8 -9 0 -20 18 -11 18 -20 36 -20 40 1 14 40 -43 40 -58z m1370 52 c0 -5
-15 -19 -32 -32 l-33 -24 25 31 c25 31 40 41 40 25z m-1885 -23 c-10 -15 -25
-10 -19 6 4 8 10 12 15 9 5 -3 7 -10 4 -15z m-135 1 c15 -9 22 -70 8 -70 -4 0
-5 -7 -2 -15 3 -8 2 -20 -2 -27 -4 -7 -8 -22 -8 -33 -1 -22 -5 -25 -40 -25
-28 0 -46 40 -46 103 0 63 45 96 90 67z m172 -12 c-7 -7 -12 -8 -12 -2 0 14
12 26 19 19 2 -3 -1 -11 -7 -17z m98 12 c0 -5 -2 -10 -4 -10 -3 0 -8 5 -11 10
-3 6 -1 10 4 10 6 0 11 -4 11 -10z m930 0 c0 -5 -2 -10 -4 -10 -3 0 -8 5 -11
10 -3 6 -1 10 4 10 6 0 11 -4 11 -10z m1075 0 c-3 -5 -11 -10 -16 -10 -6 0 -7
5 -4 10 3 6 11 10 16 10 6 0 7 -4 4 -10z m-432 -30 c3 -11 2 -20 -3 -20 -4 0
-10 11 -12 25 -6 29 7 25 15 -5z m-1953 -2 c0 -16 -3 -19 -11 -11 -6 6 -8 16
-5 22 11 17 16 13 16 -11z m1350 18 c0 -3 -4 -8 -10 -11 -5 -3 -10 -1 -10 4 0
6 5 11 10 11 6 0 10 -2 10 -4z m-1090 -10 c0 -3 -4 -8 -10 -11 -5 -3 -10 -1
-10 4 0 6 5 11 10 11 6 0 10 -2 10 -4z m-70 -16 c0 -5 -8 -10 -17 -10 -15 0
-16 2 -3 10 19 12 20 12 20 0z m149 -16 c2 -2 -4 -11 -14 -21 -17 -16 -17 -16
-11 5 6 16 3 22 -8 22 -9 0 -16 5 -16 10 0 9 32 -2 49 -16z m1721 -10 c0 -14
-4 -23 -9 -20 -5 3 -7 15 -4 26 7 28 13 25 13 -6z m-190 6 c0 -5 -4 -10 -9
-10 -6 0 -13 5 -16 10 -3 6 1 10 9 10 9 0 16 -4 16 -10z m-500 -9 c0 -6 -4
-13 -10 -16 -5 -3 -10 1 -10 9 0 9 5 16 10 16 6 0 10 -4 10 -9z m-1487 -16
c-3 -9 -8 -14 -10 -11 -3 3 -2 9 2 15 9 16 15 13 8 -4z m117 -10 c0 -14 -4
-25 -10 -25 -5 0 -10 11 -10 25 0 14 5 25 10 25 6 0 10 -11 10 -25z m195 15
c3 -5 -1 -10 -10 -10 -9 0 -13 5 -10 10 3 6 8 10 10 10 2 0 7 -4 10 -10z
m2013 -19 c-7 -12 -16 -21 -21 -21 -8 0 -2 14 16 38 16 20 20 6 5 -17z m-1958
9 c0 -5 -7 -10 -16 -10 -8 0 -12 5 -9 10 3 6 10 10 16 10 5 0 9 -4 9 -10z
m1640 0 c0 -5 -2 -10 -4 -10 -3 0 -8 5 -11 10 -3 6 -1 10 4 10 6 0 11 -4 11
-10z m80 -5 c0 -8 -4 -15 -10 -15 -5 0 -10 7 -10 15 0 8 5 15 10 15 6 0 10 -7
10 -15z m-630 -10 c0 -14 -25 -55 -36 -59 -18 -7 -17 -2 1 34 13 25 35 41 35
25z m-1640 -9 c0 -3 -4 -8 -10 -11 -5 -3 -10 -1 -10 4 0 6 5 11 10 11 6 0 10
-2 10 -4z m564 -21 c-6 -16 -24 -21 -24 -7 0 11 11 22 21 22 5 0 6 -7 3 -15z
m1826 -7 c0 -6 -6 -5 -15 2 -8 7 -15 14 -15 16 0 2 7 1 15 -2 8 -4 15 -11 15
-16z m-2080 -14 c0 -8 -4 -12 -10 -9 -5 3 -10 10 -10 16 0 5 5 9 10 9 6 0 10
-7 10 -16z m2165 -3 c-3 -6 -14 -11 -23 -11 -15 1 -15 2 2 15 21 16 32 13 21
-4z m-2375 -21 c-6 -11 -15 -20 -20 -20 -6 0 -5 9 2 20 7 11 16 20 21 20 4 0
3 -9 -3 -20z m358 0 c7 -11 10 -20 6 -20 -7 0 -34 27 -34 34 0 13 16 5 28 -14z
m62 5 c0 -19 -12 -25 -27 -14 -19 16 -16 25 7 25 11 0 20 -5 20 -11z m550 5
c0 -5 -5 -10 -11 -10 -5 0 -7 5 -4 10 3 6 8 10 11 10 2 0 4 -4 4 -10z m490 0
c0 -5 -4 -10 -10 -10 -5 0 -10 5 -10 10 0 6 5 10 10 10 6 0 10 -4 10 -10z
m555 -10 c14 -16 15 -20 4 -20 -16 0 -39 19 -39 32 0 14 16 9 35 -12z m-1802
-21 c-12 -4 -24 -12 -28 -18 -3 -6 -12 -11 -18 -11 -7 0 1 12 16 25 16 14 33
22 39 18 7 -4 3 -9 -9 -14z m1217 11 c0 -5 -4 -10 -10 -10 -5 0 -10 5 -10 10
0 6 5 10 10 10 6 0 10 -4 10 -10z m940 -4 c0 -2 -8 -10 -17 -17 -16 -13 -17
-12 -4 4 13 16 21 21 21 13z m-2101 -32 c25 -15 27 -19 17 -41 -7 -14 -17 -22
-27 -20 -19 5 -49 -10 -49 -23 0 -14 55 -40 83 -40 12 0 28 5 35 12 9 9 15 8
26 -8 8 -10 18 -15 23 -11 4 5 0 15 -10 22 -22 16 -14 36 33 80 l33 30 -6 -63
c-7 -83 -26 -112 -75 -112 -60 0 -114 20 -149 55 -47 47 -42 92 12 123 25 15
22 15 54 -4z m640 2 c10 -11 6 -13 -21 -10 -18 1 -40 3 -48 4 -10 1 -9 4 5 10
30 13 51 12 64 -4z m505 8 c9 -3 16 -13 16 -21 0 -13 -3 -13 -25 1 -14 9 -30
14 -35 11 -6 -3 -10 -1 -10 4 0 12 29 14 54 5z m-829 -14 c3 -5 2 -10 -4 -10
-5 0 -13 5 -16 10 -3 6 -2 10 4 10 5 0 13 -4 16 -10z m-524 -29 c13 -11 21
-22 18 -26 -4 -3 -19 5 -34 19 -32 30 -19 35 16 7z m99 -1 c0 -5 -4 -10 -10
-10 -5 0 -10 5 -10 10 0 6 5 10 10 10 6 0 10 -4 10 -10z m400 1 c0 -12 -20
-25 -27 -18 -7 7 6 27 18 27 5 0 9 -4 9 -9z m1610 -7 c0 -8 -4 -12 -10 -9 -5
3 -10 10 -10 16 0 5 5 9 10 9 6 0 10 -7 10 -16z m-750 -5 c0 -12 -19 -21 -30
-14 -6 4 -8 10 -6 14 7 10 36 10 36 0z m-400 -18 c0 -6 -4 -13 -10 -16 -5 -3
-10 1 -10 9 0 9 5 16 10 16 6 0 10 -4 10 -9z m-360 -28 c0 -6 -27 -33 -34 -33
-8 0 -8 35 0 43 6 6 34 -2 34 -10z m383 -11 c-3 -12 -9 -22 -14 -22 -12 0 -11
7 3 30 15 24 19 21 11 -8z m352 -2 c-3 -5 -11 -10 -16 -10 -6 0 -7 5 -4 10 3
6 11 10 16 10 6 0 7 -4 4 -10z m-290 -20 c3 -5 1 -10 -4 -10 -6 0 -11 5 -11
10 0 6 2 10 4 10 3 0 8 -4 11 -10z m893 -15 c14 -31 15 -35 3 -35 -5 0 -14 14
-20 30 -12 36 1 40 17 5z m-928 5 c0 -5 -4 -10 -10 -10 -5 0 -10 5 -10 10 0 6
5 10 10 10 6 0 10 -4 10 -10z m293 -5 c-3 -8 -9 -15 -13 -15 -5 0 -15 -3 -24
-6 -11 -4 -16 0 -16 12 0 14 8 20 30 21 22 2 28 -1 23 -12z m-741 -17 c-7 -7
-12 -8 -12 -2 0 14 12 26 19 19 2 -3 -1 -11 -7 -17z m494 -15 c-10 -10 -19 5
-10 18 6 11 8 11 12 0 2 -7 1 -15 -2 -18z m168 -19 c-9 -13 -21 -24 -26 -24
-5 0 -18 -10 -28 -22 -10 -13 -22 -20 -26 -15 -9 9 76 98 88 91 4 -3 1 -16 -8
-30z m-220 -11 c19 -21 32 -40 30 -42 -5 -5 -74 65 -74 74 0 11 12 3 44 -32z
m21 27 c3 -5 -1 -10 -9 -10 -9 0 -16 5 -16 10 0 6 4 10 9 10 6 0 13 -4 16 -10z
m325 -21 c0 -5 -4 -9 -10 -9 -5 0 -10 7 -10 16 0 8 5 12 10 9 6 -3 10 -10 10
-16z m37 -11 c-3 -8 -6 -5 -6 6 -1 11 2 17 5 13 3 -3 4 -12 1 -19z m-77 -7 c0
-12 -20 -25 -27 -18 -7 7 6 27 18 27 5 0 9 -4 9 -9z m-640 -26 c0 -33 -15 -33
-16 0 -1 14 2 25 7 25 5 0 9 -11 9 -25z m720 11 c0 -3 -4 -8 -10 -11 -5 -3
-10 -1 -10 4 0 6 5 11 10 11 6 0 10 -2 10 -4z m-420 -16 c0 -5 -4 -10 -10 -10
-5 0 -10 5 -10 10 0 6 5 10 10 10 6 0 10 -4 10 -10z m335 -20 c3 -5 -1 -10 -9
-10 -9 0 -16 5 -16 10 0 6 4 10 9 10 6 0 13 -4 16 -10z m-398 -47 c-4 -17 -4
-17 -12 0 -4 9 -4 25 0 35 8 16 8 16 12 0 3 -10 3 -26 0 -35z m223 37 c0 -5
-7 -10 -15 -10 -8 0 -15 5 -15 10 0 6 7 10 15 10 8 0 15 -4 15 -10z m-160 -10
c0 -5 -4 -10 -10 -10 -5 0 -10 5 -10 10 0 6 5 10 10 10 6 0 10 -4 10 -10z
m280 -30 c25 -21 41 -39 35 -39 -5 0 -30 18 -55 39 -25 22 -40 40 -35 40 6 0
30 -18 55 -40z m100 21 c0 -11 -4 -23 -10 -26 -6 -4 -10 5 -10 19 0 14 5 26
10 26 6 0 10 -9 10 -19z m-45 -39 c-6 -7 -34 29 -34 43 0 6 9 -1 20 -14 11
-13 17 -26 14 -29z m-325 7 c-12 -16 -25 -28 -27 -25 -8 8 25 56 38 56 6 0 1
-14 -11 -31z m448 -5 l3 -29 -16 29 c-18 34 -19 39 -2 34 6 -3 13 -18 15 -34z
m-298 -9 c-30 -32 -38 -25 -9 9 12 14 25 24 27 21 3 -3 -5 -16 -18 -30z m16
-32 c-10 -10 -19 5 -10 18 6 11 8 11 12 0 2 -7 1 -15 -2 -18z m44 6 c0 -5 -4
-9 -10 -9 -5 0 -10 7 -10 16 0 8 5 12 10 9 6 -3 10 -10 10 -16z"/>
<path d="M2240 3490 c0 -5 5 -10 11 -10 5 0 7 5 4 10 -3 6 -8 10 -11 10 -2 0
-4 -4 -4 -10z"/>
<path d="M2590 3271 c0 -27 14 -33 36 -16 16 13 17 16 4 25 -24 15 -40 12 -40
-9z"/>
<path d="M1440 2879 c-73 -49 -111 -99 -75 -99 8 0 15 -6 15 -12 0 -7 13 -14
29 -15 21 -1 30 3 34 17 3 12 14 20 25 20 12 0 23 4 26 9 10 16 113 23 158 10
60 -17 168 -99 130 -99 -4 0 -13 5 -19 11 -16 16 -148 21 -209 9 -55 -12 -111
-47 -131 -83 -19 -34 -16 -40 17 -35 17 3 30 1 30 -4 0 -4 16 -8 35 -8 19 0
35 5 35 10 0 6 -4 10 -10 10 -20 0 -9 39 16 59 36 28 45 26 38 -7 -8 -41 30
-86 65 -77 36 9 61 34 61 62 0 12 3 23 8 23 11 0 78 -64 84 -81 3 -8 9 -10 14
-6 4 4 1 20 -8 34 -16 26 -15 27 10 40 19 10 27 11 33 2 4 -8 13 0 24 22 10
18 24 40 32 48 14 13 13 16 -6 23 -12 4 -24 14 -27 23 -4 8 -14 15 -23 15 -10
0 -30 13 -45 29 -37 38 -60 47 -184 65 -132 20 -129 21 -182 -15z m280 -159
c0 -5 -2 -10 -4 -10 -3 0 -8 5 -11 10 -3 6 -1 10 4 10 6 0 11 -4 11 -10z m35
-20 c3 -5 2 -10 -4 -10 -5 0 -13 5 -16 10 -3 6 -2 10 4 10 5 0 13 -4 16 -10z
m-95 -30 c0 -5 -2 -10 -4 -10 -3 0 -8 5 -11 10 -3 6 -1 10 4 10 6 0 11 -4 11
-10z"/>
<path d="M1306 2892 c-7 -12 22 -38 31 -28 4 3 0 14 -9 22 -9 10 -18 12 -22 6z"/>
<path d="M1345 2741 c-3 -5 -1 -12 5 -16 5 -3 10 1 10 9 0 18 -6 21 -15 7z"/>
<path d="M2255 2710 c-33 -14 -81 -58 -72 -66 4 -4 27 7 51 24 24 18 55 36 68
41 l23 10 -25 0 c-14 0 -34 -4 -45 -9z"/>
<path d="M2355 2706 c-67 -17 -112 -41 -147 -79 -24 -27 -37 -57 -24 -57 3 0
26 21 52 48 l48 47 6 -26 c13 -45 29 -66 55 -71 38 -8 73 24 77 70 l3 37 33
-34 c17 -18 32 -37 32 -42 0 -4 -12 -16 -27 -24 l-28 -16 34 5 c18 4 54 6 78
6 l45 0 -7 32 c-4 17 -17 40 -29 50 -70 60 -122 74 -201 54z m5 -56 c0 -5 -5
-10 -11 -10 -5 0 -7 5 -4 10 3 6 8 10 11 10 2 0 4 -4 4 -10z"/>
<path d="M1550 2590 c0 -13 28 -25 38 -16 3 4 0 11 -8 16 -20 13 -30 12 -30 0z"/>
<path d="M2410 2549 c0 -5 5 -7 10 -4 6 3 10 8 10 11 0 2 -4 4 -10 4 -5 0 -10
-5 -10 -11z"/>
<path d="M1868 2219 c-16 -6 -28 -19 -30 -32 -2 -17 -9 -22 -31 -20 -50 3 -24
-32 31 -43 34 -7 44 10 20 34 -21 21 5 35 54 27 23 -4 84 -8 133 -9 50 0 96
-5 103 -9 23 -15 2 -25 -35 -16 -47 10 -68 -6 -28 -21 16 -6 33 -17 39 -25 10
-13 17 -12 54 6 48 24 57 49 16 41 -15 -3 -24 -1 -21 4 17 28 -59 69 -98 53
-33 -13 -108 -9 -135 6 -29 17 -36 17 -72 4z"/>
<path d="M1867 2064 c-3 -5 1 -15 9 -22 16 -14 18 -5 5 17 -5 7 -11 9 -14 5z"/>
<path d="M2580 2050 c-8 -5 -11 -12 -7 -16 4 -4 13 -2 19 4 15 15 7 24 -12 12z"/>
<path d="M1350 2043 c0 -15 23 -33 42 -33 23 0 23 16 1 24 -10 3 -24 9 -30 12
-7 3 -13 2 -13 -3z"/>
<path d="M1830 2019 c0 -5 5 -7 10 -4 6 3 10 8 10 11 0 2 -4 4 -10 4 -5 0 -10
-5 -10 -11z"/>
<path d="M2155 2020 c-3 -5 -1 -10 4 -10 6 0 11 5 11 10 0 6 -2 10 -4 10 -3 0
-8 -4 -11 -10z"/>
<path d="M1423 1998 c-16 -18 -19 -28 -12 -45 12 -33 22 -28 14 7 -5 23 -3 30
9 30 9 0 16 7 16 15 0 20 -3 19 -27 -7z"/>
<path d="M1766 1785 c4 -8 11 -15 16 -15 6 0 5 6 -2 15 -7 8 -14 15 -16 15 -2
0 -1 -7 2 -15z"/>
<path d="M2227 1793 c-4 -3 -7 -15 -7 -26 0 -16 3 -17 15 -7 8 7 15 19 15 26
0 15 -12 19 -23 7z"/>
<path d="M1720 1780 c0 -5 5 -10 10 -10 6 0 10 5 10 10 0 6 -4 10 -10 10 -5 0
-10 -4 -10 -10z"/>
<path d="M2188 1753 c7 -3 16 -2 19 1 4 3 -2 6 -13 5 -11 0 -14 -3 -6 -6z"/>
<path d="M2338 1748 c-6 -17 1 -38 13 -38 5 0 9 11 9 25 0 26 -14 34 -22 13z"/>
<path d="M1642 1739 c2 -7 10 -15 17 -17 8 -3 12 1 9 9 -2 7 -10 15 -17 17 -8
3 -12 -1 -9 -9z"/>
<path d="M2255 1710 c-3 -5 -1 -10 4 -10 6 0 11 5 11 10 0 6 -2 10 -4 10 -3 0
-8 -4 -11 -10z"/>
<path d="M1600 1700 c0 -5 7 -10 15 -10 8 0 15 5 15 10 0 6 -7 10 -15 10 -8 0
-15 -4 -15 -10z"/>
<path d="M1687 1650 c-16 -5 -34 -7 -42 -4 -7 3 -15 -4 -18 -16 -4 -14 -1 -20
6 -17 7 2 29 10 50 18 20 7 37 17 37 21 0 4 -1 8 -2 7 -2 0 -16 -5 -31 -9z"/>
<path d="M2110 1572 c0 -5 7 -16 16 -23 14 -12 16 -11 13 5 -4 20 -29 35 -29
18z"/>
<path d="M2060 1563 c1 -18 18 -35 24 -24 4 6 4 16 1 21 -7 12 -25 13 -25 3z"/>
<path d="M1700 1549 c0 -5 5 -7 10 -4 6 3 10 8 10 11 0 2 -4 4 -10 4 -5 0 -10
-5 -10 -11z"/>
<path d="M2005 1540 c-3 -5 -2 -17 2 -25 7 -12 12 -13 26 -3 16 12 16 14 -2
25 -13 8 -22 9 -26 3z"/>
<path d="M1950 1528 c0 -16 17 -44 23 -38 3 3 8 15 11 28 6 18 3 22 -13 22
-12 0 -21 -6 -21 -12z"/>
<path d="M2174 1525 c24 -18 39 -20 34 -2 -3 6 -15 13 -29 15 -23 2 -23 2 -5
-13z"/>
<path d="M2130 1510 c-8 -5 -11 -12 -7 -16 4 -4 13 -2 19 4 15 15 7 24 -12 12z"/>
<path d="M2065 1480 c-3 -5 -1 -10 4 -10 6 0 11 5 11 10 0 6 -2 10 -4 10 -3 0
-8 -4 -11 -10z"/>
<path d="M2236 1116 c-13 -12 -31 -26 -40 -29 -9 -4 -16 -13 -16 -21 0 -8 -6
-16 -12 -19 -9 -3 -7 -7 5 -12 24 -10 67 10 67 31 0 9 9 29 21 45 25 35 8 39
-25 5z"/>
<path d="M1628 571 c-4 -46 7 -53 24 -16 9 21 9 29 -4 41 -14 15 -16 12 -20
-25z"/>
<path d="M1082 521 c4 -13 18 -16 19 -4 0 4 -5 9 -11 12 -7 2 -11 -2 -8 -8z"/>
<path d="M1076 2545 c-3 -10 1 -18 12 -22 9 -3 25 -13 35 -21 22 -19 23 0 1
33 -18 28 -39 32 -48 10z"/>
<path d="M2846 2508 c-29 -49 -24 -66 8 -25 26 33 32 34 39 5 10 -35 20 -13
13 27 -9 47 -29 45 -60 -7z"/>
<path d="M755 630 c-3 -5 -1 -10 4 -10 6 0 11 5 11 10 0 6 -2 10 -4 10 -3 0
-8 -4 -11 -10z"/>
<path d="M3290 540 c0 -5 5 -10 10 -10 6 0 10 5 10 10 0 6 -4 10 -10 10 -5 0
-10 -4 -10 -10z"/>
<path d="M2467 343 c-4 -3 -7 -15 -7 -27 0 -20 0 -20 15 0 8 10 15 22 15 27 0
9 -14 9 -23 0z"/>
<path d="M2512 337 c-13 -15 -6 -27 14 -27 7 0 11 7 10 15 -3 22 -12 27 -24
12z"/>
<path d="M1620 300 c0 -5 7 -10 15 -10 8 0 15 5 15 10 0 6 -7 10 -15 10 -8 0
-15 -4 -15 -10z"/>
<path d="M2542 275 c-20 -17 -32 -21 -40 -13 -7 7 -9 -8 -6 -53 9 -122 11
-128 42 -124 17 2 25 8 23 16 -3 8 -5 36 -5 62 -1 40 3 52 23 68 28 23 64 24
86 3 24 -24 14 -48 -25 -60 -19 -6 -36 -18 -39 -25 -3 -11 -1 -12 11 -1 13 10
18 9 28 -3 7 -8 24 -15 39 -14 l26 0 -24 10 c-23 9 -23 10 -6 29 22 25 37 26
33 3 -2 -13 5 -19 25 -21 15 -2 27 1 27 7 0 6 -7 11 -15 11 -11 0 -15 11 -15
40 0 62 -33 90 -104 90 -43 0 -60 -5 -84 -25z m44 -10 c-11 -8 -25 -15 -30
-15 -6 0 -2 7 8 15 11 8 25 15 30 15 6 0 2 -7 -8 -15z m112 -7 c14 -14 16 -42
2 -33 -14 9 -32 45 -22 45 4 0 13 -5 20 -12z m-162 -55 c-10 -10 -19 5 -10 18
6 11 8 11 12 0 2 -7 1 -15 -2 -18z m2 -63 c0 -16 -4 -30 -9 -30 -5 0 -9 16 -9
36 0 42 17 38 18 -6z"/>
<path d="M2415 279 c-11 -17 1 -21 15 -4 8 9 8 15 2 15 -6 0 -14 -5 -17 -11z"/>
<path d="M2890 260 c0 -5 5 -10 10 -10 6 0 10 5 10 10 0 6 -4 10 -10 10 -5 0
-10 -4 -10 -10z"/>
<path d="M2332 220 c-7 -12 -8 -20 -2 -20 5 0 10 5 10 10 0 6 7 10 15 10 8 0
15 5 15 10 0 17 -25 11 -38 -10z"/>
<path d="M1718 223 c7 -3 16 -2 19 1 4 3 -2 6 -13 5 -11 0 -14 -3 -6 -6z"/>
<path d="M2767 199 c7 -7 15 -10 18 -7 3 3 -2 9 -12 12 -14 6 -15 5 -6 -5z"/>
<path d="M1490 175 c0 -8 5 -15 10 -15 6 0 10 7 10 15 0 8 -4 15 -10 15 -5 0
-10 -7 -10 -15z"/>
<path d="M1730 179 c0 -5 5 -7 10 -4 6 3 10 8 10 11 0 2 -4 4 -10 4 -5 0 -10
-5 -10 -11z"/>
<path d="M2341 154 c-17 -20 -8 -28 36 -31 l36 -2 -23 24 c-27 29 -30 29 -49
9z"/>
<path d="M1456 119 c-11 -11 -15 -19 -9 -19 12 0 38 28 32 34 -2 2 -13 -5 -23
-15z"/>
</g>
</svg>
